<svg version="1.1" id="Layer_1" xmlns="http://www.w3.org/2000/svg" xmlns:xlink="http://www.w3.org/1999/xlink" x="0px" y="0px"
	 width="100%" viewBox="0 0 736 736" enable-background="new 0 0 736 736" xml:space="preserve">
<path fill="#000000" opacity="1.000000" stroke="none" 
	d="
M505.457397,406.676392 
	C509.866516,384.786530 520.977661,367.820404 539.327271,355.782959 
	C549.596680,349.046143 560.825989,350.879700 565.937500,359.988007 
	C568.804016,365.095825 568.704468,370.493164 566.809570,375.932434 
	C558.834717,398.823303 544.214600,416.315033 522.837463,427.502625 
	C512.171631,433.084564 503.491821,440.212433 496.645813,449.968323 
	C491.861816,456.785797 485.451080,462.107300 478.257477,467.472839 
	C482.931976,469.718170 487.408264,470.105255 490.881897,472.783783 
	C491.238068,473.058441 492.131378,472.744446 492.737579,472.571136 
	C510.597473,467.465393 526.286865,471.427307 538.466187,485.330536 
	C551.670776,500.404175 562.447937,517.385803 564.705688,537.726807 
	C566.795166,556.551331 566.237488,575.441895 553.168091,591.390747 
	C550.524658,594.616516 548.612244,595.070312 544.458740,593.433899 
	C532.166992,588.590942 520.916992,582.566467 512.327087,572.227661 
	C507.530548,566.454468 502.880463,560.588806 498.803375,554.279785 
	C497.838379,552.786560 497.179291,550.932617 495.117065,550.627808 
	C493.810333,550.875549 493.559753,551.796875 493.362671,552.832520 
	C489.760620,571.759521 485.584015,590.561523 483.182556,609.731384 
	C481.406982,623.905273 478.449402,637.935669 472.523193,651.159119 
	C463.929108,670.335327 449.063019,679.537170 428.275482,680.649841 
	C411.494385,681.547974 395.034393,680.121887 378.783722,676.131653 
	C373.529327,674.841431 367.914886,673.707092 366.992859,666.547913 
	C366.730499,664.510864 364.477539,662.751343 362.259613,662.543518 
	C357.324554,662.081238 355.139282,658.600098 353.149353,654.905029 
	C344.686737,639.190308 339.861542,622.202759 336.837341,604.780212 
	C332.232941,578.254089 328.239655,551.620789 324.116638,525.012878 
	C323.157654,518.824036 322.721252,512.554199 321.229034,505.808441 
	C312.136047,523.274963 294.592377,531.406250 281.318909,544.904907 
	C277.876953,540.009460 276.344269,535.083862 274.505249,530.367920 
	C270.463104,520.002075 265.839905,509.843872 264.570740,498.546753 
	C262.907349,483.740631 266.616821,470.492920 275.171753,458.500732 
	C287.042053,441.861084 301.160828,428.204102 321.778809,422.879944 
	C332.783325,420.038239 338.435486,422.156891 344.262329,432.123688 
	C347.985382,438.492035 350.214233,445.500305 353.055725,452.245544 
	C354.782806,456.345337 362.798218,457.897339 365.841370,454.665039 
	C367.010956,453.422791 366.413086,452.190643 365.867401,450.971588 
	C355.836395,428.563019 344.479706,406.901611 328.988220,387.703400 
	C322.020142,379.068054 312.550568,374.568024 301.755280,372.255463 
	C288.447998,369.404785 288.343384,369.084534 281.480377,380.713531 
	C272.632294,395.706055 260.072998,407.493408 247.970291,419.598328 
	C232.897751,434.673676 217.378189,449.314178 201.755020,463.823029 
	C188.935043,475.728577 175.386780,486.805115 161.090469,496.928314 
	C159.871750,497.791260 158.626862,498.682343 157.268784,499.271271 
	C153.071548,501.091309 150.979294,499.738129 150.615463,495.262207 
	C147.981308,462.856079 156.695602,434.361572 179.369476,410.491608 
	C192.820251,396.331268 206.125305,381.874908 223.562775,372.606873 
	C241.908478,362.856201 261.739075,356.117889 282.564545,360.078400 
	C294.190857,362.289459 305.933685,366.192566 317.093994,370.875427 
	C321.729034,372.820312 325.329315,376.412445 328.907684,379.962616 
	C344.903503,395.832672 355.918488,414.918488 365.114624,435.237701 
	C367.513550,440.538269 370.476013,445.582001 372.940979,450.855255 
	C373.959442,453.034058 375.360901,453.866760 377.606293,453.693695 
	C381.256836,453.412354 384.911469,452.893738 388.558990,452.936401 
	C393.342712,452.992371 394.028931,450.507812 393.514679,446.511017 
	C390.503021,423.103363 387.613159,399.680084 384.630127,376.268707 
	C384.000244,371.325409 383.256409,366.391266 382.374725,361.487122 
	C381.650970,357.461273 379.825592,354.042694 376.625732,351.260925 
	C371.856049,347.114410 367.221313,342.840546 363.917603,337.271149 
	C361.659149,333.463867 357.451202,332.145020 353.506683,330.811554 
	C349.199921,329.355621 345.253876,327.372589 341.611542,324.618591 
	C334.011993,318.872498 325.160919,317.766174 315.989502,318.251129 
	C304.855408,318.839874 293.724365,320.363495 282.588593,318.410461 
	C272.792755,316.692474 263.905457,313.344818 258.389740,304.271240 
	C255.187164,299.002838 256.189545,294.711365 261.742523,292.442963 
	C277.283386,286.094513 292.278168,278.237549 308.956360,274.953583 
	C314.507263,273.860596 320.053833,272.744507 325.611847,271.688843 
	C327.532471,271.324097 329.621033,271.461609 331.454041,268.972565 
	C325.596710,265.942871 319.489716,264.733978 313.274292,264.367615 
	C299.307831,263.544281 285.284393,264.255920 271.327728,262.990417 
	C260.381531,261.997894 249.365189,261.182159 240.006653,254.445999 
	C237.596085,252.710938 235.689941,253.824173 233.566299,254.915421 
	C207.074936,268.528198 182.246964,284.570465 160.158035,304.691284 
	C155.482620,308.950134 150.473907,312.871368 144.873383,315.903534 
	C137.033768,320.147980 132.251389,318.203400 130.022278,309.482025 
	C127.571587,299.893707 127.851562,290.262482 131.655838,281.037048 
	C138.730179,263.881592 148.767029,249.029587 165.444489,239.712311 
	C187.599091,227.335114 209.347626,228.901108 229.926682,242.996536 
	C236.121353,247.239502 240.820801,248.125961 247.872894,245.216446 
	C266.588043,237.494980 286.451599,234.436783 306.557404,236.241074 
	C322.794556,237.698196 337.915588,242.529358 346.556305,258.633698 
	C351.181610,267.254303 358.523834,272.277802 369.456360,271.848480 
	C369.183472,267.597076 369.014343,263.221191 368.604095,258.868042 
	C366.722839,238.904938 359.512451,221.182678 346.360260,205.922516 
	C342.775360,201.762985 338.956970,197.647278 336.215302,192.946014 
	C325.045532,173.792786 309.382202,158.667389 293.385284,143.751984 
	C275.782654,127.339485 256.759979,113.353943 233.376724,106.122833 
	C226.946838,104.134438 221.292175,100.479500 217.330658,94.751945 
	C216.400162,93.406631 215.177994,91.944122 216.121033,90.194206 
	C217.190735,88.209229 218.960510,89.190048 220.566803,89.448898 
	C232.046310,91.298775 243.699570,91.386047 255.200317,93.441910 
	C280.383850,97.943718 303.848846,107.020943 326.638123,118.296654 
	C337.318268,123.580994 347.415161,129.546844 355.695984,138.279053 
	C367.565796,150.795868 375.994934,164.716629 374.290833,182.984146 
	C376.967163,178.411362 376.618408,173.311584 377.397980,168.500244 
	C378.547913,161.403015 380.105560,154.460724 382.515533,147.687759 
	C386.085236,137.655472 389.028290,127.365219 393.163635,117.575745 
	C405.717041,87.858177 427.295776,67.550148 457.321198,55.385166 
	C473.071167,49.003967 489.033112,45.862076 505.810120,45.719688 
	C506.476562,45.714035 507.143799,45.715847 507.809631,45.741207 
	C524.148560,46.363415 532.537903,56.928329 529.921021,73.107574 
	C528.398804,82.519508 523.723633,90.642006 520.051636,99.170334 
	C511.622375,118.747368 516.841980,135.672607 534.986816,146.892990 
	C537.962036,148.732834 540.856140,150.705933 543.857300,152.501144 
	C550.792725,156.649734 554.032349,164.010437 554.484131,170.810181 
	C554.843384,176.217682 551.530823,182.526520 548.128784,187.782227 
	C542.132751,197.045486 533.522278,203.140839 524.027344,208.250366 
	C511.667267,214.901703 498.045349,218.605133 485.490051,224.807739 
	C480.093536,227.473770 474.906006,230.441925 470.141663,234.126450 
	C468.714325,235.230270 467.075226,236.171844 466.664093,238.513840 
	C479.210022,244.991974 480.890228,256.529205 480.503021,269.047394 
	C480.346802,274.098877 480.477264,279.159180 480.477264,284.021179 
	C482.937988,284.832397 484.244354,283.541321 485.731903,282.925751 
	C498.752747,277.537445 512.024597,273.422241 526.401184,274.669434 
	C528.765808,274.874573 531.004272,275.468231 533.121704,276.437561 
	C537.669800,278.519653 538.879150,282.134308 536.747803,286.729156 
	C534.117676,292.399353 529.337402,296.123322 524.631775,299.810089 
	C505.358582,314.910217 484.241272,326.811981 461.456573,335.764282 
	C458.974304,336.739532 456.509094,337.703827 454.711823,339.865234 
	C444.733490,351.865204 431.969177,360.330383 418.534210,367.814972 
	C413.244263,370.762024 410.044220,374.695007 408.107025,380.454254 
	C402.446655,397.282227 402.838531,414.530762 403.768585,431.848022 
	C404.017700,436.486145 404.891876,441.087402 405.281891,445.722168 
	C405.660187,450.217499 407.704407,452.419037 412.419769,452.900848 
	C421.850067,453.864410 431.340576,454.080597 440.735291,455.563171 
	C448.815948,456.838348 456.901398,458.065186 464.497040,461.146667 
	C468.797607,462.891388 472.333618,462.353943 476.215668,460.021027 
	C483.775055,455.478271 489.140442,448.564972 495.669983,442.954224 
	C502.293915,437.262390 503.982605,430.472687 503.671692,422.447998 
	C503.470795,417.263092 504.460236,412.176666 505.457397,406.676392 
M457.579529,666.674316 
	C460.415985,664.807617 462.571228,662.242615 464.433075,659.491699 
	C473.816345,645.627441 476.805450,629.722290 478.824829,613.447815 
	C472.239319,632.185303 465.803345,650.955933 448.699493,663.460754 
	C451.536926,665.610779 455.542694,663.206726 456.392120,667.287354 
	C454.576691,667.408081 452.714355,667.848572 450.954437,667.590515 
	C445.297150,666.761108 440.296722,668.242981 435.142151,670.556091 
	C429.258453,673.196350 422.929749,674.657471 416.435913,675.539001 
	C411.336487,676.231262 406.171692,676.101746 401.093201,676.976501 
	C411.879852,678.274658 422.696198,678.606934 433.409607,677.334595 
	C442.152924,676.296326 450.762848,674.147034 457.579529,666.674316 
M230.419479,431.915802 
	C232.614365,429.872803 234.792786,427.811737 237.006821,425.789703 
	C250.929276,413.074677 264.081024,399.636139 275.539734,384.619690 
	C277.287903,382.328735 279.019745,379.952911 279.401337,375.890808 
	C229.965942,400.838837 190.107986,434.973541 161.542450,481.779510 
	C160.214539,480.403137 160.763214,479.340790 161.205276,478.251984 
	C169.839142,456.986877 182.355637,438.272583 198.496048,422.010529 
	C219.568375,400.779358 245.155182,386.217621 271.642273,373.059235 
	C277.151123,370.322510 282.355682,366.927490 289.711426,365.548920 
	C284.393372,362.516388 279.965088,361.880127 275.474915,361.982452 
	C258.409637,362.371246 242.072952,366.127869 226.935547,374.026855 
	C209.981674,382.873718 197.203796,396.868469 183.857391,410.139526 
	C160.586136,433.279541 151.769989,461.600769 153.393982,493.768494 
	C153.445099,494.781036 153.422592,495.792328 154.659058,496.417236 
	C157.259537,496.481110 159.083679,494.637115 161.070953,493.209198 
	C186.059265,475.254669 207.927628,453.765228 230.419479,431.915802 
M501.598541,493.870636 
	C499.759399,491.076294 497.920227,488.281921 495.769928,485.014801 
	C495.668945,487.237793 495.564362,488.700989 495.541870,490.165466 
	C495.318207,504.734497 492.484070,519.170166 494.651245,533.920593 
	C495.475342,539.529724 496.520844,544.599304 499.443939,549.282715 
	C510.636841,567.216309 523.379578,583.366272 544.721497,590.233032 
	C548.103088,591.321106 549.613281,591.008362 551.699097,588.308289 
	C563.182129,573.443359 563.741272,556.141602 562.017761,538.803223 
	C560.233337,520.852417 550.532349,506.061676 540.152222,491.829071 
	C532.601562,481.476105 522.657471,475.054565 509.804871,473.715424 
	C505.384674,473.254852 500.699768,472.292999 495.954895,475.481812 
	C504.109955,485.735443 509.145996,497.273529 516.300964,507.477875 
	C530.776367,528.122742 538.788696,551.531006 545.840454,575.373474 
	C546.416016,577.319580 547.141235,579.454102 545.618164,581.393433 
	C543.339111,580.806396 543.161987,578.990906 542.591919,577.495911 
	C540.991333,573.298157 539.321350,569.122375 537.873901,564.871460 
	C530.168457,542.242493 521.042603,520.339783 506.121552,501.308563 
	C504.488831,499.226105 503.304871,496.791779 501.598541,493.870636 
M363.299652,210.566422 
	C363.870819,204.697662 366.125336,199.274628 367.859375,193.726517 
	C372.059021,180.289581 372.702057,167.089615 364.641602,154.820007 
	C358.390015,145.303925 350.969452,136.638077 341.287109,130.441086 
	C322.809875,118.615089 302.772339,110.006287 281.936371,103.356697 
	C264.109680,97.667480 245.830429,94.129250 227.013031,94.081345 
	C225.642075,94.077850 223.961273,93.436394 222.897400,95.427185 
	C226.262939,99.826042 231.203476,101.780716 236.158020,103.647629 
	C244.103165,106.641434 252.338165,109.117424 259.519409,113.692528 
	C287.876770,131.758865 312.357208,154.132370 332.452545,181.123062 
	C338.805023,189.655289 344.131195,198.915710 351.601135,206.658432 
	C356.123596,211.346069 359.179138,217.117935 361.842407,223.114853 
	C363.551575,226.963425 364.461029,231.269989 367.780487,234.454514 
	C367.706665,226.474854 364.478760,219.115326 363.299652,210.566422 
M417.245819,204.755814 
	C408.687286,210.977219 401.214264,218.388107 395.138702,226.969650 
	C387.467499,237.804947 380.999573,249.177704 383.990936,263.489502 
	C384.974701,268.196167 389.548279,271.042816 393.258636,268.155090 
	C396.108673,265.936951 399.361176,265.409332 402.598541,265.167145 
	C405.832916,264.925293 408.341064,263.722839 410.574341,261.599304 
	C420.961578,251.722244 434.154358,245.401443 444.180878,235.015305 
	C446.053314,233.075699 447.789703,231.494492 448.677002,228.778305 
	C452.875671,215.925247 465.234222,208.868652 478.371674,211.580444 
	C480.046112,211.926086 481.644806,211.682159 483.308594,211.435196 
	C497.247101,209.366226 507.854919,200.869675 518.894897,193.172760 
	C522.553467,190.621979 522.518433,187.518341 521.301514,183.613159 
	C520.088928,179.721802 517.500671,178.523224 513.927612,178.088409 
	C505.254852,177.033005 496.654266,178.074722 488.118225,179.231277 
	C462.947205,182.641632 438.996124,189.631470 417.245819,204.755814 
M403.011261,177.435272 
	C398.099915,185.415894 395.643311,193.380905 403.350861,201.326859 
	C405.432800,201.276123 406.596375,199.484726 408.063385,198.210205 
	C412.710693,194.172577 417.037415,189.694382 422.016052,186.122452 
	C440.447174,172.899063 456.311096,157.279556 469.392395,138.663406 
	C480.221832,123.251968 488.208405,106.960320 489.687897,87.879143 
	C489.990417,83.977066 488.683014,81.583862 485.424927,79.722694 
	C478.832703,75.956894 476.519684,76.263878 472.028900,82.372787 
	C469.049469,86.425781 466.121887,90.085312 460.208038,88.653191 
	C458.523682,88.245308 456.954315,89.428734 455.816376,90.660141 
	C452.934265,93.778923 449.530945,96.369171 447.288818,100.140274 
	C432.239014,125.452782 416.509735,150.372894 403.011261,177.435272 
M336.890442,449.434509 
	C336.759552,447.274689 336.894318,445.057007 336.439148,442.967865 
	C335.641113,439.305389 335.926941,433.794373 332.247711,432.959747 
	C328.252838,432.053589 326.677704,437.403717 324.810455,440.530212 
	C309.135925,466.775665 296.083435,494.249237 286.533447,523.335510 
	C285.963226,525.072205 285.951691,527.323486 282.098389,528.048096 
	C291.019928,490.508850 301.830688,454.831940 327.582581,425.453613 
	C301.016968,429.955139 284.225037,447.028961 272.584167,469.469330 
	C259.612366,494.475372 272.333801,516.689026 281.925018,539.728577 
	C290.324310,532.016846 299.590179,526.731506 306.657806,518.964600 
	C314.702942,510.123444 322.760895,501.209747 322.122009,487.744904 
	C321.816193,481.299225 324.087128,474.609619 328.819061,470.451538 
	C335.247437,464.802826 336.270294,457.872009 336.890442,449.434509 
M475.523254,285.885986 
	C476.150146,280.273895 476.946930,274.674316 477.362671,269.046631 
	C477.937805,261.261627 476.818176,253.785751 472.225006,247.176773 
	C467.951538,241.027786 462.273712,240.669098 457.631622,246.415268 
	C452.823151,252.367386 448.194519,258.464783 443.487274,264.498688 
	C435.760986,274.402557 427.629822,284.272614 415.956329,289.314545 
	C407.501312,292.966339 403.383270,298.960785 400.740417,306.927460 
	C399.798157,309.767731 398.674255,312.556396 397.888153,315.438110 
	C395.503937,324.177856 394.166260,333.026886 396.421143,342.006104 
	C397.750732,347.300476 400.528229,349.172119 405.091919,347.274994 
	C413.593628,343.740906 421.753815,339.032410 427.509979,331.922668 
	C440.065491,316.414856 453.802216,302.369537 470.652222,291.535797 
	C472.588287,290.291046 474.746826,289.184235 475.523254,285.885986 
M151.717087,255.221710 
	C144.661072,263.091125 138.865280,271.774902 135.006790,281.648132 
	C131.318253,291.086456 130.859146,300.734253 133.852753,310.440796 
	C135.070908,314.390503 137.714264,315.587372 141.606979,313.763397 
	C144.491333,312.411865 147.183578,310.777618 149.594284,308.713593 
	C174.800385,287.132568 201.059280,267.081085 231.056046,252.431046 
	C232.051956,251.944672 233.213684,251.402664 233.133759,249.487457 
	C223.514923,241.831070 212.606995,236.369766 200.010208,235.379639 
	C180.993698,233.884964 165.346252,241.346375 151.717087,255.221710 
M287.038483,315.487335 
	C297.051971,316.292633 306.989777,314.739960 316.966278,314.410706 
	C327.174347,314.073822 336.464569,316.156952 344.752716,322.157837 
	C348.163483,324.627350 351.809509,326.566742 355.791687,327.875488 
	C357.287567,328.367096 359.092316,329.712891 360.294617,327.834534 
	C361.422028,326.073181 359.715637,324.760559 358.665100,323.535278 
	C352.278168,316.085876 344.763306,310.146057 335.553589,306.536011 
	C325.004913,302.401154 314.233734,299.019867 303.099304,296.811096 
	C301.363983,296.466888 298.887512,297.170105 298.103668,294.221649 
	C300.149811,291.833984 303.000732,292.570496 305.470978,292.681488 
	C333.710205,293.950653 355.070312,307.442902 370.919861,330.265503 
	C372.435272,329.334564 372.728455,328.216705 372.727692,327.031036 
	C372.721100,316.536865 373.278992,305.993622 372.415161,295.568848 
	C371.971039,290.208862 369.778442,284.691284 363.413849,282.401428 
	C356.688019,279.981598 350.166229,276.992920 343.565521,274.228394 
	C341.988220,273.567780 340.372528,273.278473 338.685089,273.505249 
	C332.746094,274.303528 326.784515,274.971680 320.877594,275.963623 
	C302.328918,279.078552 285.060547,285.999023 267.958069,293.570282 
	C258.883728,297.587524 257.997162,300.809418 265.472565,307.502258 
	C266.825317,308.713409 268.389526,309.721069 269.956268,310.654541 
	C274.937683,313.622559 280.564392,314.435516 287.038483,315.487335 
M451.099945,165.594513 
	C446.297577,170.716797 440.911774,175.175323 435.238068,179.275208 
	C422.232605,188.673096 410.267548,199.195465 400.067993,211.626556 
	C398.159851,213.952225 395.703217,216.058136 395.373840,219.333923 
	C398.957672,216.070679 402.442627,212.857147 405.970734,209.691742 
	C423.698730,193.786301 445.047760,185.349869 467.775726,179.765121 
	C479.928864,176.778839 492.262207,175.022110 504.768646,174.731461 
	C508.958252,174.634109 511.863831,172.850464 513.418518,169.198990 
	C514.906738,165.703461 512.588318,163.167282 510.389496,160.835327 
	C508.563965,158.899216 506.566254,157.126755 504.690948,155.236038 
	C495.363922,145.832382 489.139099,134.991287 489.016083,121.324699 
	C489.007050,120.320496 488.817657,119.317322 486.446716,118.192299 
	C475.942047,134.429932 465.048950,150.757538 451.099945,165.594513 
M527.282043,421.757843 
	C544.817993,410.396362 557.139648,394.914459 563.856812,375.104309 
	C566.176819,368.262177 564.776062,361.100189 561.009888,358.354950 
	C553.850891,353.136536 548.841492,353.109283 541.270325,358.030365 
	C532.774780,363.552185 525.671814,370.402588 520.019775,378.864990 
	C510.149902,393.642517 506.588135,410.037262 507.018860,427.633789 
	C510.172974,422.935822 512.998779,418.103302 515.447815,413.086792 
	C523.590088,396.408112 533.293762,380.730164 545.034729,366.344177 
	C546.166626,364.957245 547.169128,362.932129 551.103210,363.620728 
	C536.234497,385.081573 524.013489,407.216400 512.326599,429.663574 
	C517.357117,427.816101 521.922363,424.807281 527.282043,421.757843 
M330.351959,496.195496 
	C331.067261,494.331879 331.931549,492.510040 332.468628,490.596405 
	C333.818939,485.784821 336.216827,482.795502 341.889008,482.978912 
	C344.977356,483.078827 348.122253,482.403534 351.307739,482.591614 
	C354.320496,482.769531 356.267578,481.709930 354.775146,478.087128 
	C353.064728,473.935303 351.459351,469.739105 349.873779,465.537506 
	C349.225098,463.818665 348.424347,462.489685 346.269958,463.058777 
	C341.485657,464.322723 337.275177,465.979156 335.435059,471.438202 
	C332.676422,479.622375 329.941528,487.841980 326.140076,495.646088 
	C325.513275,496.932892 325.285858,498.523743 325.267700,499.978973 
	C325.176300,507.306549 326.134766,514.562378 326.925293,521.830688 
	C328.863525,539.650757 332.778839,557.152466 335.401947,574.860168 
	C338.271515,594.231689 341.181549,613.595520 347.356659,632.261841 
	C349.185944,637.791504 350.746033,643.517578 354.831177,649.321716 
	C354.831177,646.871399 355.095764,645.492920 354.787811,644.257141 
	C352.915710,636.744568 353.814819,629.850464 356.019470,622.204041 
	C358.786102,612.608643 357.786774,602.128296 356.131134,592.004456 
	C353.639374,576.768250 346.460205,563.411560 339.832489,549.802124 
	C331.704468,533.111816 325.553802,516.029175 330.351959,496.195496 
M317.130646,261.169037 
	C324.467926,262.040070 331.440094,264.060211 337.941589,267.643341 
	C339.997742,268.776550 342.154602,269.464417 344.629333,269.052246 
	C347.534485,268.568420 348.300568,267.533356 346.818726,264.703430 
	C337.863281,247.601105 323.085846,240.014023 304.510406,239.599976 
	C286.351685,239.195236 268.315338,240.676651 251.098129,247.299301 
	C248.255692,248.392639 245.058502,248.877869 242.939667,251.796570 
	C245.025925,253.984177 247.378067,255.115524 249.890625,256.012939 
	C257.020966,258.559723 264.470551,259.126190 271.936157,259.597626 
	C286.701843,260.530060 301.540771,259.111816 317.130646,261.169037 
M476.514709,296.858856 
	C476.512817,298.588226 475.490967,300.479340 477.753265,302.358917 
	C491.794739,295.966919 505.277557,287.590912 521.740967,282.750641 
	C520.683411,284.569183 520.548462,285.098206 520.210876,285.322998 
	C519.388489,285.870636 518.507629,286.368073 517.588379,286.727020 
	C502.954956,292.441345 489.330780,300.085510 475.986420,308.292755 
	C473.469299,309.840881 471.704468,311.740021 470.426666,314.423035 
	C468.356873,318.769135 465.903717,322.932098 463.633057,327.183380 
	C463.039520,328.294647 461.877716,329.331787 463.181244,331.047546 
	C466.910187,331.355804 469.914551,328.923798 473.081207,327.415070 
	C493.121002,317.867493 512.427429,307.092133 528.927979,291.979614 
	C531.799561,289.349579 535.771484,286.274780 534.272949,282.010254 
	C532.710815,277.564880 527.756775,277.442200 523.580078,277.388702 
	C509.457672,277.207703 496.438538,281.406616 483.821838,287.385803 
	C479.889618,289.249359 477.121094,291.601349 476.514709,296.858856 
M465.407684,495.603577 
	C470.705109,494.300171 475.912201,494.042725 480.982422,496.618988 
	C482.269409,497.272919 484.187714,498.150146 484.948212,496.319366 
	C486.791077,491.882965 488.813263,487.065338 487.251190,482.370941 
	C483.977539,472.532928 475.612549,469.316956 466.197144,473.624451 
	C465.289795,474.039551 464.377747,474.446686 463.453552,474.822266 
	C460.265350,476.117889 457.246857,476.738831 455.669769,472.145966 
	C443.074860,477.410736 430.441162,481.593903 419.674408,489.811340 
	C417.008728,491.845856 415.448273,494.329468 414.066620,497.216705 
	C412.799347,499.864929 413.645203,501.590118 416.126343,502.228577 
	C421.898132,503.713745 427.714813,505.668060 433.779053,504.089905 
	C444.066345,501.412781 454.309631,498.566437 465.407684,495.603577 
M406.256866,350.040802 
	C398.961273,352.223114 395.709259,350.642761 393.608826,343.333862 
	C391.608643,336.373993 391.272766,329.264496 392.912231,322.134003 
	C393.187531,320.936737 394.184509,319.635986 391.998322,318.189850 
	C389.497894,321.814240 384.550629,323.718384 384.251404,328.877533 
	C384.003174,333.157379 384.247345,337.544403 384.908661,341.784882 
	C387.996033,361.582184 391.577271,381.296173 393.578552,401.263611 
	C394.284515,408.306915 394.529358,415.538788 397.154816,423.466431 
	C400.496216,396.904633 402.424164,371.251129 415.212372,347.540833 
	C411.282593,347.225952 409.344635,349.206451 406.256866,350.040802 
M400.525391,143.329559 
	C400.308502,149.744690 397.849579,154.519791 391.250549,156.512009 
	C388.883545,157.226593 388.030792,159.227005 388.041473,161.619949 
	C388.070435,168.113831 388.062775,174.608002 388.125610,181.101501 
	C388.141907,182.787247 388.319061,184.498703 390.606842,184.971069 
	C393.589478,183.444901 393.678070,180.080170 395.022888,177.532761 
	C407.935059,153.074097 421.414703,128.957733 437.280701,106.248863 
	C438.141968,105.016136 439.813843,103.676575 438.241608,101.852776 
	C436.932434,100.334137 435.168427,99.816391 433.257721,100.243065 
	C427.554688,101.516632 423.212646,104.644096 420.865509,110.088242 
	C419.939026,112.237244 418.619537,114.190002 417.721313,116.273697 
	C413.526367,126.005356 404.321899,132.467773 400.525391,143.329559 
M444.302032,473.709747 
	C450.540771,470.655762 457.533844,469.202362 463.399048,464.873108 
	C446.271881,457.703369 428.447754,456.900909 409.283173,455.977356 
	C415.921906,465.888794 417.323090,476.091003 419.248627,486.733887 
	C426.859650,480.533203 435.390381,477.590332 444.302032,473.709747 
M398.937286,495.592834 
	C405.570282,497.616364 414.384613,491.665710 414.614044,484.739563 
	C414.926178,475.317596 412.001129,466.789307 407.214447,458.702881 
	C405.001556,454.964508 401.920410,455.307373 398.592529,455.465393 
	C394.970428,455.637451 395.182495,458.715454 394.718506,460.969452 
	C393.909454,464.899384 393.968445,468.873871 394.853241,472.860687 
	C396.151245,478.709625 397.357910,484.629272 395.904907,490.624512 
	C395.316895,493.050659 396.017914,494.479614 398.937286,495.592834 
M376.183044,210.139038 
	C374.118347,202.746338 374.737579,195.110397 374.108368,187.472855 
	C371.100372,194.341660 368.666016,201.301926 366.999969,208.529312 
	C366.622040,210.168823 366.311493,211.744385 366.808899,213.435501 
	C369.895844,223.931229 371.947205,234.657806 373.682953,246.241837 
	C375.802979,238.586517 377.712311,231.743698 379.583344,224.890442 
	C379.941956,223.576935 379.880920,222.241257 379.238586,220.995560 
	C377.610901,217.839142 377.139771,214.359436 376.183044,210.139038 
M420.005341,347.432190 
	C415.818115,353.252472 412.253967,359.314636 411.116058,367.178802 
	C421.442017,364.629181 443.903381,348.176941 445.267151,342.456573 
	C436.687775,342.693939 428.884369,346.606384 420.005341,347.432190 
M435.826263,333.340759 
	C432.827698,335.951660 428.809753,337.495819 426.847412,341.487640 
	C441.271057,344.849854 464.900970,329.183960 462.889984,317.269104 
	C452.907562,320.724792 445.072876,327.559479 435.826263,333.340759 
M387.550201,487.840820 
	C388.338776,489.349213 388.432556,491.947205 390.949432,491.222412 
	C393.043304,490.619476 392.715179,488.295807 392.859009,486.515381 
	C393.681793,476.329376 388.400330,466.387878 392.751770,455.562164 
	C386.617310,456.011536 381.637360,456.376312 375.886749,456.797516 
	C380.230774,467.269897 384.669586,476.873199 387.550201,487.840820 
M359.329895,467.220154 
	C360.571167,469.946777 362.490540,472.569550 362.927155,475.419434 
	C364.264282,484.147186 370.614960,485.467865 378.180634,486.403748 
	C376.553894,477.798645 373.656189,469.893677 370.624786,462.059570 
	C368.962585,457.763916 365.476532,457.082794 359.736908,459.484344 
	C355.183502,461.389557 358.646149,464.107758 359.329895,467.220154 
M378.626404,181.064529 
	C377.614227,191.610138 376.342529,202.173584 380.262054,212.911438 
	C381.900970,211.260773 382.171021,209.783813 382.674347,208.389984 
	C386.705414,197.226288 384.053833,185.677536 384.654083,174.319656 
	C384.950500,168.710754 384.221375,163.032013 386.487549,157.616226 
	C387.377502,155.489410 386.801727,153.604111 384.528351,152.091629 
	C380.675568,161.371643 380.138763,170.857910 378.626404,181.064529 
M472.104889,298.224487 
	C472.213135,297.191437 473.366882,296.074860 471.891937,295.156799 
	C461.798004,299.700623 442.548492,316.880585 441.490906,322.422668 
	C443.346893,322.488556 444.575592,321.313354 445.934387,320.422699 
	C451.637177,316.684753 457.177002,312.553528 463.537354,310.073853 
	C468.896820,307.984375 471.479797,304.403473 472.104889,298.224487 
M205.879486,423.377533 
	C214.830627,414.222687 224.811279,406.211670 234.450897,397.823151 
	C215.175903,408.995087 199.118942,423.694611 186.435837,442.077484 
	C192.750870,436.011566 199.065887,429.945618 205.879486,423.377533 
M380.292358,243.954727 
	C381.874084,236.102295 385.642639,228.610748 384.286407,220.258575 
	C382.142670,226.571060 380.510620,233.016449 378.407104,239.304108 
	C376.832703,244.010239 378.609009,250.308975 372.297760,252.941422 
	C372.016785,253.058624 371.897949,253.834122 371.894318,254.304443 
	C371.863403,258.319366 371.876617,262.334625 371.876617,266.349762 
	C372.371918,266.370575 372.867218,266.391357 373.362549,266.412140 
	C374.389221,264.354858 375.767914,262.395325 376.372009,260.220642 
	C377.790558,255.114258 378.838654,249.904968 380.292358,243.954727 
M391.338776,298.161957 
	C385.930145,300.535858 382.376007,313.187347 385.260132,319.799927 
	C390.373352,315.719788 394.776245,307.173859 394.740601,301.387054 
	C394.729309,299.557587 395.101105,297.406891 391.338776,298.161957 
M340.252686,445.652924 
	C341.204895,450.848053 338.465485,456.029449 339.627777,461.293762 
	C347.234955,460.404388 347.567169,460.003448 345.801666,453.469910 
	C344.503967,448.667450 343.097229,443.892487 341.624908,439.140625 
	C341.292023,438.066284 341.414734,436.393982 339.021698,436.361023 
	C339.424011,439.241516 339.807465,441.987091 340.252686,445.652924 
M513.860229,200.950455 
	C512.401855,202.027786 510.932281,203.090408 509.488434,204.186859 
	C508.214691,205.154083 507.738800,206.450333 509.238525,207.391617 
	C510.844086,208.399307 512.398743,207.654053 513.639465,206.317780 
	C515.441345,204.377106 515.730286,202.231750 513.860229,200.950455 
M488.701965,499.562225 
	C488.309296,502.092316 487.880280,504.632568 490.629730,506.918579 
	C491.859283,503.215485 491.790680,500.011200 491.665344,495.888763 
	C490.414581,497.320618 489.701782,498.136627 488.701965,499.562225 
M415.430176,266.342224 
	C411.531921,266.263153 410.562958,268.905090 409.400970,273.126068 
	C412.654480,271.088287 414.648193,269.573944 415.430176,266.342224 
M304.039764,471.841309 
	C305.207489,469.082947 307.258545,466.681610 307.438019,463.503174 
	C304.592529,466.078400 303.139069,469.410980 302.589508,473.049591 
	C302.497223,473.660522 303.409729,472.713715 304.039764,471.841309 
M357.118835,472.255371 
	C356.117554,475.323669 358.171478,477.111267 360.104919,478.977722 
	C359.710602,476.566742 359.400574,474.143219 357.118835,472.255371 
z"/>
</svg>